<svg width="36" height="30" viewBox="0 0 36 30" fill="none" xmlns="http://www.w3.org/2000/svg">
<path d="M2.14062 1.00098C3.6513 1.00098 4.87535 2.29398 4.87535 3.88798C4.87535 5.48198 3.6513 6.77498 2.14157 6.77498" stroke="black" stroke-linecap="round" stroke-linejoin="round"/>
<path d="M11.1319 14.246C9.75331 14.247 8.39302 13.9128 7.15623 13.2691C5.91944 12.6254 4.83931 11.6896 3.99942 10.534C2.79139 8.87695 2.13763 6.84301 2.14064 4.75098M33.8412 4.75098C33.8412 9.99498 29.8152 14.246 24.849 14.246" stroke="black" stroke-linecap="round" stroke-linejoin="round"/>
<path d="M33.8601 6.77499C33.4954 6.7852 33.1325 6.7181 32.7927 6.57764C32.453 6.43718 32.1433 6.2262 31.8819 5.95717C31.6205 5.68813 31.4128 5.36647 31.2709 5.01118C31.129 4.65589 31.0559 4.27415 31.0558 3.8885C31.0558 3.50285 31.1288 3.12109 31.2705 2.76574C31.4123 2.4104 31.6199 2.08867 31.8812 1.81953C32.1425 1.5504 32.4521 1.33931 32.7919 1.19873C33.1316 1.05814 33.4945 0.990906 33.8591 1.00099M2.14062 1.00099C3.6513 1.00099 4.87535 2.29399 4.87535 3.88799C4.87535 5.48199 3.6513 6.77499 2.14157 6.77499" stroke="black" stroke-linecap="round" stroke-linejoin="round"/>
<path d="M33.8591 6.77499C33.4944 6.7852 33.1315 6.7181 32.7917 6.57764C32.452 6.43718 32.1423 6.2262 31.8809 5.95717C31.6195 5.68813 31.4118 5.36647 31.2699 5.01118C31.128 4.65589 31.0549 4.27415 31.0548 3.8885C31.0547 3.50285 31.1277 3.12109 31.2695 2.76574C31.4113 2.4104 31.6189 2.08867 31.8802 1.81953C32.1415 1.5504 32.4511 1.33931 32.7908 1.19873C33.1305 1.05814 33.4934 0.990906 33.8581 1.00099" stroke="black" stroke-linecap="round" stroke-linejoin="round"/>
<path d="M17.2332 6.70298C16.9116 11.01 15.3763 14.246 11.0439 14.246H11.1328C9.75425 14.247 8.39396 13.9128 7.15717 13.2691C5.92039 12.6254 4.84026 11.6896 4.00036 10.534C2.79199 8.87708 2.1379 6.84312 2.14063 4.75098V1.00098V24.459H33.8601V1.00098" stroke="black" stroke-linecap="round" stroke-linejoin="round"/>
<path d="M33.841 4.75098C33.841 9.99498 29.8151 14.246 24.8489 14.246H24.6918C20.3689 14.246 18.8298 11.024 18.5044 6.72998" stroke="black" stroke-linecap="round" stroke-linejoin="round"/>
<path d="M2.14062 1.00098V24.458H33.8601V1.00098" stroke="black" stroke-linecap="round" stroke-linejoin="round"/>
<path d="M15.2638 3.89335C15.2638 5.48735 16.4878 6.78035 17.9976 6.78035C19.5073 6.78035 20.7323 5.48735 20.7323 3.89335C20.7323 2.29835 19.5083 1.00635 17.9985 1.00635C16.4888 1.00635 15.2638 2.29835 15.2638 3.89335Z" stroke="black" stroke-linecap="round" stroke-linejoin="round"/>
<path d="M15.2634 3.89335C15.2634 5.48735 16.4874 6.78035 17.9972 6.78035C19.5069 6.78035 20.7319 5.48735 20.7319 3.89335C20.7319 2.29835 19.5078 1.00635 17.9981 1.00635C16.4884 1.00635 15.2634 2.29835 15.2634 3.89335ZM0.5 24.4583H35.5V28.6553H0.5V24.4583Z" stroke="black" stroke-linecap="round" stroke-linejoin="round"/>
<path d="M0.5 24.458H35.5V28.655H0.5V24.458Z" stroke="black" stroke-linecap="round" stroke-linejoin="round"/>
</svg>
