<svg width="18" height="36" viewBox="0 0 18 36" fill="none" xmlns="http://www.w3.org/2000/svg">
<g id="Group">
<path id="Vector" fill-rule="evenodd" clip-rule="evenodd" d="M4.16861 8.57983C2.88421 9.52095 2.18037 10.7479 2.18037 12.0215C2.18037 13.2971 2.88421 14.524 4.16861 15.4671C5.45301 16.4101 7.27424 17.0226 9.32808 17.0226C9.59174 17.0226 9.8446 17.125 10.031 17.3074C10.2175 17.4897 10.3222 17.737 10.3222 17.9948C10.3222 18.2527 10.2175 18.5 10.031 18.6823C9.8446 18.8646 9.59174 18.9671 9.32808 18.9671C6.88653 18.9671 4.63585 18.2418 2.97567 17.0226C1.3135 15.8034 0.192139 14.0476 0.192139 12.0234C0.192139 10.0012 1.3135 8.2415 2.97567 7.02233C4.63784 5.80511 6.88653 5.07983 9.32808 5.07983C13.1415 5.07983 16.5792 6.86678 17.9053 9.61817C18.0177 9.85152 18.0306 10.119 17.9413 10.3616C17.852 10.6043 17.6678 10.8024 17.4292 10.9122C17.1905 11.022 16.9171 11.0347 16.6689 10.9473C16.4208 10.86 16.2183 10.6799 16.106 10.4465C15.1974 8.56039 12.6047 7.02428 9.32808 7.02428C7.27424 7.02428 5.45301 7.63678 4.16861 8.57983Z" fill="#FEB930"/>
<path id="Vector_2" fill-rule="evenodd" clip-rule="evenodd" d="M13.8314 27.4079C15.1158 26.4668 15.8177 25.2379 15.8177 23.9662C15.8177 22.6907 15.1158 21.4637 13.8294 20.5207C12.545 19.5776 10.7238 18.9651 8.67194 18.9651C8.40829 18.9651 8.15543 18.8627 7.96899 18.6804C7.78256 18.4981 7.67782 18.2508 7.67782 17.9929C7.67782 17.7351 7.78256 17.4878 7.96899 17.3055C8.15543 17.1231 8.40829 17.0207 8.67194 17.0207C11.1135 17.0207 13.3642 17.746 15.0244 18.9651C16.6845 20.1843 17.8059 21.9401 17.8059 23.9643C17.8059 25.9865 16.6845 27.7463 15.0224 28.9635C13.3622 30.1826 11.1135 30.9079 8.67194 30.9079C4.85851 30.9079 1.42084 29.121 0.0946903 26.3696C-0.0176274 26.1362 -0.0305572 25.8688 0.0587444 25.6261C0.148046 25.3834 0.332264 25.1854 0.570873 25.0756C0.809482 24.9657 1.08294 24.9531 1.33108 25.0404C1.57922 25.1277 1.78173 25.3079 1.89404 25.5412C2.80267 27.4274 5.39334 28.9635 8.67194 28.9635C10.7238 28.9635 12.545 28.351 13.8314 27.4079ZM7.9522 0.21875C8.21586 0.21875 8.46871 0.32118 8.65515 0.503507C8.84158 0.685834 8.94632 0.933123 8.94632 1.19097V5.07986C8.94632 5.33771 8.84158 5.585 8.65515 5.76733C8.46871 5.94965 8.21586 6.05208 7.9522 6.05208C7.68854 6.05208 7.43569 5.94965 7.24925 5.76733C7.06282 5.585 6.95808 5.33771 6.95808 5.07986V1.19097C6.95808 0.933123 7.06282 0.685834 7.24925 0.503507C7.43569 0.32118 7.68854 0.21875 7.9522 0.21875Z" fill="#FEB930"/>
<path id="Vector_3" fill-rule="evenodd" clip-rule="evenodd" d="M7.95225 29.3854C8.2159 29.3854 8.46876 29.4878 8.6552 29.6701C8.84163 29.8525 8.94637 30.0997 8.94637 30.3576V34.2465C8.94637 34.5043 8.84163 34.7516 8.6552 34.934C8.46876 35.1163 8.2159 35.2187 7.95225 35.2187C7.68859 35.2187 7.43573 35.1163 7.2493 34.934C7.06287 34.7516 6.95813 34.5043 6.95813 34.2465V30.3576C6.95813 30.0997 7.06287 29.8525 7.2493 29.6701C7.43573 29.4878 7.68859 29.3854 7.95225 29.3854Z" fill="#FEB930"/>
</g>
</svg>
