<svg width="31" height="31" viewBox="0 0 31 31" fill="none" xmlns="http://www.w3.org/2000/svg">
<path id="Vector" d="M29.8184 13.9639H15.689V18.153H25.7198C25.2113 23.9994 20.3269 26.5007 15.7044 26.5007C9.80303 26.5007 4.62583 21.8665 4.62583 15.3449C4.62583 9.0535 9.55649 4.18916 15.7198 4.18916C20.481 4.18916 23.2699 7.21211 23.2699 7.21211L26.1975 4.17382C26.1975 4.17382 22.4379 0 15.5657 0C6.81382 0 0.0495605 7.36556 0.0495605 15.3449C0.0495605 23.0941 6.4132 30.6898 15.7969 30.6898C24.0403 30.6898 30.0496 25.0582 30.0496 16.7413C30.0496 14.9766 29.8184 13.9639 29.8184 13.9639Z" fill="#18191F"/>
</svg>
