<svg width="36" height="35" viewBox="0 0 36 35" fill="none" xmlns="http://www.w3.org/2000/svg">
<path d="M13.3331 16.8088C13.7046 15.8586 14.4025 15.0923 15.2866 14.6637C15.4444 14.6097 15.6118 14.5942 15.7761 14.6184C15.9405 14.6426 16.0975 14.7059 16.2353 14.8035C16.3732 14.9011 16.4883 15.0305 16.5721 15.1819C16.6558 15.3333 16.706 15.5029 16.7188 15.6777C17.5313 23.6457 16.1152 28.1737 13.0285 30.8407H2.70995C-0.5139 27.0457 0.580582 17.7008 1.13397 10.4028C1.48398 5.81075 7.09072 1.79575 11.4734 5.37875C12.058 5.8667 12.5294 6.48936 12.8517 7.19921C13.174 7.90907 13.3387 8.68738 13.3331 9.47475V16.8088ZM13.3331 16.8088L13.0285 21.5187M33.2892 30.8407H22.9716C19.884 28.1737 18.4679 23.6457 19.2804 15.6777C19.2932 15.5028 19.3434 15.3331 19.4272 15.1816C19.511 15.0301 19.6262 14.9006 19.7642 14.803C19.9021 14.7054 20.0593 14.6421 20.2237 14.618C20.3882 14.5939 20.5557 14.6095 20.7136 14.6637C21.5976 15.0923 22.2955 15.8586 22.667 16.8088M22.667 16.8088L22.6651 9.47475C22.6597 8.6873 22.8245 7.90894 23.147 7.19907C23.4695 6.48921 23.9411 5.8666 24.5258 5.37875C28.9085 1.79575 34.5152 5.81075 34.8652 10.4028C35.4196 17.7008 36.5131 27.0458 33.2892 30.8418M22.667 16.8088L22.9706 21.5187" stroke="black" stroke-linecap="round" stroke-linejoin="round"/>
</svg>
