<svg width="36" height="35" viewBox="0 0 36 35" fill="none" xmlns="http://www.w3.org/2000/svg">
<path d="M32.5842 19.9166L20.966 31.7729C20.1957 32.5586 19.1511 33 18.0619 33C16.9727 33 15.9281 32.5586 15.1579 31.7729L3.53957 19.9186C2.57916 18.9473 1.81625 17.7919 1.29464 16.5189C0.773024 15.2459 0.502986 13.8803 0.500025 12.5005C0.497063 11.1207 0.761237 9.75389 1.27738 8.47856C1.79352 7.20322 2.55147 6.04446 3.5077 5.0688C4.46394 4.09314 5.59963 3.3198 6.84958 2.79317C8.09952 2.26654 9.43911 1.997 10.7914 2.00003C12.1437 2.00305 13.4822 2.27857 14.7298 2.81078C15.9775 3.34298 17.1099 4.12139 18.0619 5.10132C19.9957 3.17737 22.5945 2.10823 25.2954 2.1255C27.9963 2.14276 30.5818 3.24505 32.4918 5.19357C34.4018 7.14209 35.4825 9.77994 35.4998 12.5357C35.5171 15.2915 34.4696 17.9432 32.5842 19.9166Z" stroke="black" stroke-linecap="round" stroke-linejoin="round"/>
</svg>
