<svg width="18" height="17" viewBox="0 0 18 17" fill="none" xmlns="http://www.w3.org/2000/svg">
<path fill-rule="evenodd" clip-rule="evenodd" d="M9.95531 8.07755L13.2627 11.3849L12.5419 12.1066L8.93531 8.5V3.4H9.95531V8.07755ZM9.44531 17C4.75076 17 0.945312 13.1946 0.945312 8.5C0.945312 3.80545 4.75076 0 9.44531 0C14.1399 0 17.9453 3.80545 17.9453 8.5C17.9453 13.1946 14.1399 17 9.44531 17ZM9.44531 15.98C11.4291 15.98 13.3317 15.1919 14.7345 13.7892C16.1372 12.3864 16.9253 10.4838 16.9253 8.5C16.9253 6.51618 16.1372 4.61361 14.7345 3.21084C13.3317 1.80807 11.4291 1.02 9.44531 1.02C7.46149 1.02 5.55893 1.80807 4.15615 3.21084C2.75338 4.61361 1.96531 6.51618 1.96531 8.5C1.96531 10.4838 2.75338 12.3864 4.15615 13.7892C5.55893 15.1919 7.46149 15.98 9.44531 15.98Z" fill="#FEB930"/>
</svg>
