<svg width="35" height="35" viewBox="0 0 35 35" fill="none" xmlns="http://www.w3.org/2000/svg">
<g id="icon chat">
<path id="Vector" d="M5.85812 25.5367C6.08518 25.781 6.25917 26.0759 6.36768 26.4004C6.4762 26.725 6.51658 27.0712 6.48594 27.4143C6.33182 29.0026 6.04036 30.572 5.61531 32.1025C8.66687 31.3454 10.5306 30.4687 11.3772 30.0092C11.8574 29.7486 12.4103 29.6869 12.9303 29.8358C14.4207 30.2632 15.9572 30.4776 17.5 30.4734C26.2412 30.4734 32.8125 23.8936 32.8125 16.4089C32.8125 8.92431 26.2412 2.3445 17.5 2.3445C8.75875 2.3445 2.1875 8.92665 2.1875 16.4089C2.1875 19.85 3.53719 23.0427 5.85812 25.5367ZM4.77969 34.6903C4.26138 34.8003 3.74141 34.9011 3.22 34.9927C2.7825 35.0677 2.45 34.5802 2.62281 34.1442C2.81652 33.6531 2.99454 33.1551 3.15656 32.651L3.16313 32.6276C3.70563 30.9398 4.1475 28.9989 4.30938 27.1917C1.62531 24.3085 0 20.5345 0 16.4089C0 7.34675 7.83562 0.000427246 17.5 0.000427246C27.1644 0.000427246 35 7.34675 35 16.4089C35 25.4711 27.1644 32.8174 17.5 32.8174C15.7666 32.8216 14.0404 32.5804 12.3659 32.1001C11.2284 32.7166 8.78062 33.8394 4.77969 34.6903Z" fill="#525252"/>
</g>
</svg>
