<svg width="18" height="17" viewBox="0 0 18 17" fill="none" xmlns="http://www.w3.org/2000/svg">
<path d="M12.0653 14.2024C11.4441 14.2024 10.9143 14.0097 10.4758 13.6242C10.0374 13.2388 9.81777 12.7741 9.81706 12.2301C9.81635 11.6861 10.0359 11.2208 10.4758 10.8341C10.9157 10.4474 11.4455 10.255 12.0653 10.2569C12.6851 10.2587 13.2149 10.4515 13.6548 10.8351C14.0947 11.2186 14.3139 11.6837 14.3125 12.2301C14.3111 12.7766 14.0915 13.2416 13.6537 13.6252C13.216 14.0088 12.6865 14.2012 12.0653 14.2024ZM2.21594 17C1.72719 17 1.31919 16.8564 0.991937 16.5692C0.664687 16.282 0.500708 15.9235 0.5 15.494V3.58557C0.5 3.15661 0.663979 2.79852 0.991937 2.5113C1.3199 2.22408 1.72825 2.08016 2.217 2.07954H4.09656V0H5.24087V2.07954H12.842V0H13.9045V2.07954H15.7841C16.2728 2.07954 16.6812 2.22346 17.0091 2.5113C17.3371 2.79914 17.5007 3.15754 17.5 3.58651V15.494C17.5 15.9229 17.3364 16.2813 17.0091 16.5692C16.6819 16.857 16.2732 17.0006 15.783 17H2.21594ZM2.21594 16.0675H15.7841C15.947 16.0675 16.0968 16.0078 16.2335 15.8884C16.3702 15.7691 16.4382 15.6373 16.4375 15.493V7.31662H1.5625V15.494C1.5625 15.637 1.6305 15.7684 1.7665 15.8884C1.9025 16.0084 2.05231 16.0681 2.21594 16.0675ZM1.5625 6.38316H16.4375V3.58557C16.4375 3.44258 16.3695 3.3111 16.2335 3.19111C16.0975 3.07113 15.9473 3.01145 15.783 3.01207H2.217C2.05338 3.01207 1.90321 3.07175 1.7665 3.19111C1.62979 3.31048 1.56179 3.44227 1.5625 3.58651V6.38316Z" fill="#FEB930"/>
</svg>
