<svg width="36" height="35" viewBox="0 0 36 35" fill="none" xmlns="http://www.w3.org/2000/svg">
<path d="M10.4038 22.1663C10.3599 22.0968 10.3028 22.0367 10.2358 21.9893C10.1687 21.9419 10.093 21.9082 10.0129 21.8901C9.9328 21.872 9.84992 21.8699 9.769 21.8838C9.68808 21.8977 9.61069 21.9274 9.54125 21.9712C9.47181 22.0151 9.41169 22.0722 9.36431 22.1392C9.31693 22.2063 9.28323 22.282 9.26512 22.3621C9.24701 22.4422 9.24486 22.5251 9.25878 22.606C9.2727 22.6869 9.30242 22.7643 9.34625 22.8337C11.125 25.6488 14.4513 27.5 18 27.5C21.5487 27.5 24.875 25.6488 26.6538 22.8337C26.6976 22.7643 26.7273 22.6869 26.7412 22.606C26.7551 22.5251 26.753 22.4422 26.7349 22.3621C26.7168 22.282 26.6831 22.2063 26.6357 22.1392C26.5883 22.0722 26.5282 22.0151 26.4587 21.9712C26.3893 21.9274 26.3119 21.8977 26.231 21.8838C26.1501 21.8699 26.0672 21.872 25.9871 21.8901C25.907 21.9082 25.8313 21.9419 25.7642 21.9893C25.6972 22.0367 25.6401 22.0968 25.5962 22.1663C24.0525 24.61 21.13 26.25 18 26.25C14.87 26.25 11.9475 24.61 10.4038 22.1663ZM14.875 13.75C14.875 14.2473 14.6775 14.7242 14.3258 15.0758C13.9742 15.4275 13.4973 15.625 13 15.625C12.5027 15.625 12.0258 15.4275 11.6742 15.0758C11.3225 14.7242 11.125 14.2473 11.125 13.75C11.125 13.2527 11.3225 12.7758 11.6742 12.4242C12.0258 12.0725 12.5027 11.875 13 11.875C13.4973 11.875 13.9742 12.0725 14.3258 12.4242C14.6775 12.7758 14.875 13.2527 14.875 13.75ZM23 15.625C23.4973 15.625 23.9742 15.4275 24.3258 15.0758C24.6775 14.7242 24.875 14.2473 24.875 13.75C24.875 13.2527 24.6775 12.7758 24.3258 12.4242C23.9742 12.0725 23.4973 11.875 23 11.875C22.5027 11.875 22.0258 12.0725 21.6742 12.4242C21.3225 12.7758 21.125 13.2527 21.125 13.75C21.125 14.2473 21.3225 14.7242 21.6742 15.0758C22.0258 15.4275 22.5027 15.625 23 15.625ZM18 0C8.335 0 0.5 7.835 0.5 17.5C0.5 27.165 8.335 35 18 35C27.665 35 35.5 27.165 35.5 17.5C35.5 7.835 27.665 0 18 0ZM1.75 17.5C1.75 8.525 9.025 1.25 18 1.25C26.975 1.25 34.25 8.525 34.25 17.5C34.25 26.475 26.975 33.75 18 33.75C9.025 33.75 1.75 26.475 1.75 17.5Z" fill="black"/>
</svg>
