<svg width="35" height="35" viewBox="0 0 35 35" fill="none" xmlns="http://www.w3.org/2000/svg">
<path d="M20.0202 5.02246L22.5868 10.1981C22.9368 10.9185 23.8702 11.6098 24.6577 11.741L29.3083 12.5212C32.2833 13.0214 32.9833 15.1973 30.8395 17.3439L27.2229 20.9898C26.6104 21.6066 26.275 22.7981 26.4645 23.6512L27.5 28.1648C28.3166 31.7377 26.4354 33.1187 23.3 31.252L18.9395 28.6489C18.152 28.1793 16.8541 28.1793 16.052 28.6489L11.6945 31.252C8.5737 33.1187 6.67787 31.7216 7.49454 28.1648L8.52995 23.6512C8.71954 22.7981 8.38412 21.6066 7.77162 20.9898L4.15495 17.3439C2.02724 15.1958 2.71266 13.0214 5.6862 12.5212L10.3383 11.741C11.1112 11.6098 12.0445 10.9185 12.3945 10.1981L14.9612 5.02246C16.3612 2.21517 18.6362 2.21517 20.0216 5.02246" stroke="#FEB930" stroke-width="1.5" stroke-linecap="round" stroke-linejoin="round"/>
</svg>
