<svg width="56" height="53" viewBox="0 0 56 53" fill="none" xmlns="http://www.w3.org/2000/svg">
<path opacity="0.9" d="M27.9384 32.1278C36.2502 32.1278 42.9882 25.3898 42.9882 17.0781C42.9882 8.76633 36.2502 2.02832 27.9384 2.02832C19.6267 2.02832 12.8887 8.76633 12.8887 17.0781C12.8887 25.3898 19.6267 32.1278 27.9384 32.1278Z" fill="#FEB930" stroke="white" stroke-width="3"/>
<path opacity="0.9" d="M38.8408 50.9716C47.1525 50.9716 53.8905 44.2336 53.8905 35.9218C53.8905 27.6101 47.1525 20.8721 38.8408 20.8721C30.529 20.8721 23.791 27.6101 23.791 35.9218C23.791 44.2336 30.529 50.9716 38.8408 50.9716Z" fill="#FFFF00" fill-opacity="0.5" stroke="white" stroke-width="3"/>
<path opacity="0.9" d="M17.1611 50.9716C25.4728 50.9716 32.2108 44.2336 32.2108 35.9218C32.2108 27.6101 25.4728 20.8721 17.1611 20.8721C8.84933 20.8721 2.11133 27.6101 2.11133 35.9218C2.11133 44.2336 8.84933 50.9716 17.1611 50.9716Z" fill="#FEB930" stroke="white" stroke-width="3"/>
</svg>
