<svg width="227" height="60" viewBox="0 0 227 60" fill="none" xmlns="http://www.w3.org/2000/svg">
<path opacity="0.9" d="M24.9384 34.1278C32.4218 34.1278 38.4882 28.0614 38.4882 20.5781C38.4882 13.0948 32.4218 7.02832 24.9384 7.02832C17.4551 7.02832 11.3887 13.0948 11.3887 20.5781C11.3887 28.0614 17.4551 34.1278 24.9384 34.1278Z" fill="#FEB930"/>
<path opacity="0.9" d="M35.8408 52.9716C43.3241 52.9716 49.3905 46.9052 49.3905 39.4218C49.3905 31.9385 43.3241 25.8721 35.8408 25.8721C28.3574 25.8721 22.291 31.9385 22.291 39.4218C22.291 46.9052 28.3574 52.9716 35.8408 52.9716Z" fill="#FFFF00" fill-opacity="0.5"/>
<path opacity="0.9" d="M14.1611 52.9716C21.6444 52.9716 27.7108 46.9052 27.7108 39.4218C27.7108 31.9385 21.6444 25.8721 14.1611 25.8721C6.67776 25.8721 0.611328 31.9385 0.611328 39.4218C0.611328 46.9052 6.67776 52.9716 14.1611 52.9716Z" fill="#FEB930"/>
<path d="M69.1954 14.4C69.9634 14.4 70.6354 14.688 71.2114 15.264C71.8194 15.808 72.1234 16.496 72.1234 17.328V45.072C72.1234 45.904 71.8194 46.608 71.2114 47.184C70.6034 47.728 69.8994 48 69.0994 48C68.2034 48 67.4834 47.728 66.9394 47.184C66.3954 46.608 66.1234 45.904 66.1234 45.072V17.328C66.1234 16.496 66.4114 15.808 66.9874 15.264C67.5634 14.688 68.2994 14.4 69.1954 14.4ZM90.4594 14.4C91.3554 14.4 92.0754 14.688 92.6194 15.264C93.1634 15.808 93.4354 16.496 93.4354 17.328V45.072C93.4354 45.904 93.1474 46.608 92.5714 47.184C92.0274 47.728 91.2914 48 90.3634 48C89.5954 48 88.9074 47.728 88.2994 47.184C87.7234 46.608 87.4354 45.904 87.4354 45.072V17.328C87.4354 16.496 87.7394 15.808 88.3474 15.264C88.9554 14.688 89.6594 14.4 90.4594 14.4ZM69.0514 28.368H90.4594V33.888H69.0514V28.368ZM119.199 22.32C120.031 22.32 120.719 22.608 121.263 23.184C121.807 23.728 122.079 24.416 122.079 25.248V37.44C122.079 40.832 121.135 43.52 119.247 45.504C117.359 47.488 114.639 48.48 111.087 48.48C107.535 48.48 104.815 47.488 102.927 45.504C101.071 43.52 100.143 40.832 100.143 37.44V25.248C100.143 24.416 100.415 23.728 100.959 23.184C101.503 22.608 102.191 22.32 103.023 22.32C103.855 22.32 104.543 22.608 105.087 23.184C105.631 23.728 105.903 24.416 105.903 25.248V37.44C105.903 39.392 106.335 40.848 107.199 41.808C108.063 42.736 109.359 43.2 111.087 43.2C112.847 43.2 114.159 42.736 115.023 41.808C115.887 40.848 116.319 39.392 116.319 37.44V25.248C116.319 24.416 116.591 23.728 117.135 23.184C117.679 22.608 118.367 22.32 119.199 22.32ZM149.339 12.48C150.171 12.48 150.859 12.752 151.403 13.296C151.947 13.84 152.219 14.544 152.219 15.408V45.072C152.219 45.904 151.947 46.608 151.403 47.184C150.859 47.728 150.171 48 149.339 48C148.507 48 147.819 47.728 147.275 47.184C146.731 46.608 146.459 45.904 146.459 45.072V42.72L147.515 43.152C147.515 43.568 147.291 44.08 146.843 44.688C146.395 45.264 145.787 45.84 145.019 46.416C144.251 46.992 143.339 47.488 142.283 47.904C141.259 48.288 140.139 48.48 138.923 48.48C136.715 48.48 134.715 47.92 132.923 46.8C131.131 45.648 129.707 44.08 128.651 42.096C127.627 40.08 127.115 37.776 127.115 35.184C127.115 32.56 127.627 30.256 128.651 28.272C129.707 26.256 131.115 24.688 132.875 23.568C134.635 22.416 136.587 21.84 138.731 21.84C140.107 21.84 141.371 22.048 142.523 22.464C143.675 22.88 144.667 23.408 145.499 24.048C146.363 24.688 147.019 25.344 147.467 26.016C147.947 26.656 148.187 27.2 148.187 27.648L146.459 28.272V15.408C146.459 14.576 146.731 13.888 147.275 13.344C147.819 12.768 148.507 12.48 149.339 12.48ZM139.643 43.2C141.051 43.2 142.283 42.848 143.339 42.144C144.395 41.44 145.211 40.48 145.787 39.264C146.395 38.048 146.699 36.688 146.699 35.184C146.699 33.648 146.395 32.272 145.787 31.056C145.211 29.84 144.395 28.88 143.339 28.176C142.283 27.472 141.051 27.12 139.643 27.12C138.267 27.12 137.051 27.472 135.995 28.176C134.939 28.88 134.107 29.84 133.499 31.056C132.923 32.272 132.635 33.648 132.635 35.184C132.635 36.688 132.923 38.048 133.499 39.264C134.107 40.48 134.939 41.44 135.995 42.144C137.051 42.848 138.267 43.2 139.643 43.2ZM179.48 12.48C180.312 12.48 181 12.752 181.544 13.296C182.088 13.84 182.36 14.544 182.36 15.408V45.072C182.36 45.904 182.088 46.608 181.544 47.184C181 47.728 180.312 48 179.48 48C178.648 48 177.96 47.728 177.416 47.184C176.872 46.608 176.6 45.904 176.6 45.072V42.72L177.656 43.152C177.656 43.568 177.432 44.08 176.984 44.688C176.536 45.264 175.928 45.84 175.16 46.416C174.392 46.992 173.48 47.488 172.424 47.904C171.4 48.288 170.28 48.48 169.064 48.48C166.856 48.48 164.856 47.92 163.064 46.8C161.272 45.648 159.848 44.08 158.792 42.096C157.768 40.08 157.256 37.776 157.256 35.184C157.256 32.56 157.768 30.256 158.792 28.272C159.848 26.256 161.256 24.688 163.016 23.568C164.776 22.416 166.728 21.84 168.872 21.84C170.248 21.84 171.512 22.048 172.664 22.464C173.816 22.88 174.808 23.408 175.64 24.048C176.504 24.688 177.16 25.344 177.608 26.016C178.088 26.656 178.328 27.2 178.328 27.648L176.6 28.272V15.408C176.6 14.576 176.872 13.888 177.416 13.344C177.96 12.768 178.648 12.48 179.48 12.48ZM169.784 43.2C171.192 43.2 172.424 42.848 173.48 42.144C174.536 41.44 175.352 40.48 175.928 39.264C176.536 38.048 176.84 36.688 176.84 35.184C176.84 33.648 176.536 32.272 175.928 31.056C175.352 29.84 174.536 28.88 173.48 28.176C172.424 27.472 171.192 27.12 169.784 27.12C168.408 27.12 167.192 27.472 166.136 28.176C165.08 28.88 164.248 29.84 163.64 31.056C163.064 32.272 162.776 33.648 162.776 35.184C162.776 36.688 163.064 38.048 163.64 39.264C164.248 40.48 165.08 41.44 166.136 42.144C167.192 42.848 168.408 43.2 169.784 43.2ZM194.837 45.072C194.837 45.904 194.549 46.608 193.973 47.184C193.429 47.728 192.741 48 191.909 48C191.109 48 190.437 47.728 189.893 47.184C189.349 46.608 189.077 45.904 189.077 45.072V15.408C189.077 14.576 189.349 13.888 189.893 13.344C190.469 12.768 191.173 12.48 192.005 12.48C192.837 12.48 193.509 12.768 194.021 13.344C194.565 13.888 194.837 14.576 194.837 15.408V45.072ZM213.161 48.48C210.441 48.48 208.073 47.92 206.057 46.8C204.073 45.648 202.537 44.096 201.449 42.144C200.393 40.192 199.865 37.984 199.865 35.52C199.865 32.64 200.441 30.192 201.593 28.176C202.777 26.128 204.313 24.56 206.201 23.472C208.089 22.384 210.089 21.84 212.201 21.84C213.833 21.84 215.369 22.176 216.809 22.848C218.281 23.52 219.577 24.448 220.697 25.632C221.817 26.784 222.697 28.128 223.337 29.664C224.009 31.2 224.345 32.832 224.345 34.56C224.313 35.328 224.009 35.952 223.433 36.432C222.857 36.912 222.185 37.152 221.417 37.152H203.081L201.641 32.352H219.257L218.201 33.312V32.016C218.137 31.088 217.801 30.256 217.193 29.52C216.617 28.784 215.881 28.208 214.985 27.792C214.121 27.344 213.193 27.12 212.201 27.12C211.241 27.12 210.345 27.248 209.513 27.504C208.681 27.76 207.961 28.192 207.353 28.8C206.745 29.408 206.265 30.224 205.913 31.248C205.561 32.272 205.385 33.568 205.385 35.136C205.385 36.864 205.737 38.336 206.441 39.552C207.177 40.736 208.105 41.648 209.225 42.288C210.377 42.896 211.593 43.2 212.873 43.2C214.057 43.2 215.001 43.104 215.705 42.912C216.409 42.72 216.969 42.496 217.385 42.24C217.833 41.952 218.233 41.712 218.585 41.52C219.161 41.232 219.705 41.088 220.217 41.088C220.921 41.088 221.497 41.328 221.945 41.808C222.425 42.288 222.665 42.848 222.665 43.488C222.665 44.352 222.217 45.136 221.321 45.84C220.489 46.544 219.321 47.168 217.817 47.712C216.313 48.224 214.761 48.48 213.161 48.48Z" fill="#FEB930"/>
</svg>
