<svg width="26" height="30" viewBox="0 0 26 30" fill="none" xmlns="http://www.w3.org/2000/svg">
<path id="Vector" d="M21.7058 28.3655C20.0904 29.925 18.3267 29.6787 16.629 28.9401C14.8323 28.185 13.184 28.1521 11.2885 28.9401C8.9149 29.9578 7.66219 29.6623 6.24464 28.3655C-1.7991 20.1087 -0.612316 7.53459 8.51931 7.07497C10.7445 7.18987 12.2939 8.28969 13.5961 8.38819C15.5411 7.99422 17.4037 6.86157 19.4805 7.00931C21.9695 7.20629 23.8486 8.1912 25.0848 9.96405C19.9421 13.0337 21.1618 19.7804 25.876 21.6681C24.9364 24.1304 23.7167 26.5763 21.6893 28.3819L21.7058 28.3655ZM13.4313 6.97648C13.184 3.31588 16.1674 0.295474 19.5959 0C20.0739 4.23513 15.7389 7.38686 13.4313 6.97648Z" fill="#18191F"/>
</svg>
