<svg width="441" height="772" viewBox="0 0 441 772" fill="none" xmlns="http://www.w3.org/2000/svg">
<path d="M441 0H1V325L35.5028 293.158C81.9931 250.253 142.445 225.63 205.682 223.841L242.295 222.805C315.776 220.725 382.217 178.57 415.399 112.974C426.014 91.9885 432.851 69.2981 435.598 45.9418L441 0Z" fill="#FEB930"/>
<path d="M213.736 394.552L190.22 395.412C105.824 398.501 31.3034 451.367 0.499979 530.001L0.499954 596.502L0.499964 711.502C0.499997 742.279 29.0183 765.129 59.0551 758.419L188.5 729.5L328.137 666.396C338.939 661.514 348.671 654.547 356.772 645.894L429 568.751L441 555.502L441 489.001L441 368.001L441 251.002L394.434 306.364C349.356 359.957 283.719 391.99 213.736 394.552Z" fill="#FEB930"/>
</svg>
