<svg width="440" height="887" viewBox="0 0 440 887" fill="none" xmlns="http://www.w3.org/2000/svg">
<path d="M0 0H440V325L405.497 293.158C359.007 250.253 298.555 225.63 235.318 223.841L198.705 222.805C125.224 220.725 58.7826 178.57 25.6014 112.974C14.9863 91.9885 8.14886 69.2981 5.40234 45.9418L0 0Z" fill="#FEB930"/>
<path d="M397.308 675.158L405.074 692.073C414.657 712.947 421.667 734.908 425.949 757.474L432.502 792.002L432.19 798.581C429.866 847.649 388.626 885.79 339.526 884.28L330.502 884.003L282.002 884.003L238.503 867.753L172.002 842.503L67.5213 802.831C49.0255 795.808 33.3591 782.886 22.9454 766.065L0.000257953 729L0.502216 633L0.00234521 546L0.00234615 448C37.9867 495.929 95.0563 524.819 156.171 527.056L176.505 527.8C272.023 531.297 357.428 588.294 397.308 675.158Z" fill="#FEB930"/>
</svg>
