<svg width="32" height="34" viewBox="0 0 32 34" fill="none" xmlns="http://www.w3.org/2000/svg">
<path d="M2 28.2501C2 26.261 2.7375 24.3534 4.05025 22.9469C5.36301 21.5404 7.14348 20.7502 9 20.7502H23C24.8565 20.7502 26.637 21.5404 27.9497 22.9469C29.2625 24.3534 30 26.261 30 28.2501C30 29.2446 29.6313 30.1984 28.9749 30.9016C28.3185 31.6049 27.4283 32 26.5 32H5.5C4.57174 32 3.6815 31.6049 3.02513 30.9016C2.36875 30.1984 2 29.2446 2 28.2501Z" stroke="#18191F" stroke-width="2.5" stroke-linejoin="round"/>
<path d="M16.0015 13.2497C18.901 13.2497 21.2515 10.7314 21.2515 7.62486C21.2515 4.51833 18.901 2 16.0015 2C13.102 2 10.7515 4.51833 10.7515 7.62486C10.7515 10.7314 13.102 13.2497 16.0015 13.2497Z" stroke="#18191F" stroke-width="2.5"/>
</svg>
