<svg width="36" height="37" viewBox="0 0 36 37" fill="none" xmlns="http://www.w3.org/2000/svg">
<path d="M35.5 18.5C35.5 15.8591 33.3682 13.7273 30.7273 13.7273H29.5182L30.3773 12.8682C31.2711 11.9733 31.7731 10.7602 31.7731 9.49545C31.7731 8.23068 31.2711 7.01762 30.3773 6.12273C29.4824 5.22895 28.2693 4.72693 27.0045 4.72693C25.7398 4.72693 24.5267 5.22895 23.6318 6.12273L22.7727 6.98182V5.77273C22.7727 3.13182 20.6409 1 18 1C15.3591 1 13.2273 3.13182 13.2273 5.77273V6.98182L12.3682 6.12273C11.4733 5.22895 10.2602 4.72693 8.99545 4.72693C7.73068 4.72693 6.51762 5.22895 5.62273 6.12273C4.72895 7.01762 4.22693 8.23068 4.22693 9.49545C4.22693 10.7602 4.72895 11.9733 5.62273 12.8682L6.48182 13.7273H5.27273C2.63182 13.7273 0.5 15.8591 0.5 18.5C0.5 21.1409 2.63182 23.2727 5.27273 23.2727H6.48182L5.62273 24.1318C4.72895 25.0267 4.22693 26.2398 4.22693 27.5045C4.22693 28.7693 4.72895 29.9824 5.62273 30.8773C6.51762 31.7711 7.73068 32.2731 8.99545 32.2731C10.2602 32.2731 11.4733 31.7711 12.3682 30.8773L13.2273 30.0182V31.2273C13.2273 33.8682 15.3591 36 18 36C20.6409 36 22.7727 33.8682 22.7727 31.2273V30.0182L23.6318 30.8773C24.5267 31.7711 25.7398 32.2731 27.0045 32.2731C28.2693 32.2731 29.4824 31.7711 30.3773 30.8773C31.2711 29.9824 31.7731 28.7693 31.7731 27.5045C31.7731 26.2398 31.2711 25.0267 30.3773 24.1318L29.5182 23.2727H30.7273C33.3682 23.2727 35.5 21.1409 35.5 18.5Z" stroke="black" stroke-miterlimit="10" stroke-linejoin="round"/>
<path d="M18 24.8636C19.6877 24.8636 21.3063 24.1932 22.4998 22.9998C23.6932 21.8063 24.3636 20.1877 24.3636 18.5C24.3636 16.8122 23.6932 15.1936 22.4998 14.0002C21.3063 12.8068 19.6877 12.1364 18 12.1364C16.3122 12.1364 14.6936 12.8068 13.5002 14.0002C12.3068 15.1936 11.6364 16.8122 11.6364 18.5C11.6364 20.1877 12.3068 21.8063 13.5002 22.9998C14.6936 24.1932 16.3122 24.8636 18 24.8636Z" stroke="black" stroke-miterlimit="10" stroke-linejoin="round"/>
</svg>
