<svg width="35" height="35" viewBox="0 0 35 35" fill="none" xmlns="http://www.w3.org/2000/svg">
<g clip-path="url(#clip0_669_2830)">
<path d="M15.9249 4.18244C16.0854 3.90704 16.3153 3.67854 16.5916 3.51973C16.868 3.36092 17.1811 3.27734 17.4999 3.27734C17.8186 3.27734 18.1318 3.36092 18.4082 3.51973C18.6845 3.67854 18.9144 3.90704 19.0749 4.18244L23.1509 11.1795L31.0668 12.8945C31.3781 12.9622 31.6663 13.1103 31.9026 13.324C32.1389 13.5378 32.315 13.8098 32.4135 14.1128C32.5119 14.4159 32.5291 14.7395 32.4635 15.0513C32.3979 15.3631 32.2517 15.6522 32.0395 15.8899L26.6436 21.9289L27.4603 29.9862C27.4925 30.3035 27.4409 30.6236 27.3107 30.9147C27.1805 31.2058 26.9762 31.4577 26.7182 31.6451C26.4602 31.8326 26.1575 31.9491 25.8405 31.9829C25.5234 32.0168 25.2029 31.967 24.9111 31.8383L17.4999 28.5716L10.0886 31.8383C9.79685 31.967 9.47641 32.0168 9.15932 31.9829C8.84223 31.9491 8.53957 31.8326 8.28157 31.6451C8.02358 31.4577 7.81927 31.2058 7.68905 30.9147C7.55883 30.6236 7.50725 30.3035 7.53947 29.9862L8.35614 21.9289L2.9603 15.8914C2.74772 15.6537 2.6012 15.3644 2.53537 15.0524C2.46953 14.7404 2.4867 14.4166 2.58514 14.1133C2.68358 13.81 2.85986 13.5379 3.09637 13.324C3.33289 13.1101 3.62137 12.962 3.93301 12.8945L11.8488 11.1795L15.9249 4.18244Z" fill="#FEB930"/>
</g>
<defs>
<clipPath id="clip0_669_2830">
<rect width="35" height="35" fill="white"/>
</clipPath>
</defs>
</svg>
