<svg width="36" height="35" viewBox="0 0 36 35" fill="none" xmlns="http://www.w3.org/2000/svg">
<path d="M24.6925 29.2407C23.4136 29.2407 22.3227 28.8439 21.42 28.0503C20.5173 27.2568 20.0652 26.3 20.0638 25.1801C20.0623 24.0601 20.5144 23.1021 21.42 22.306C22.3257 21.5098 23.4165 21.1137 24.6925 21.1175C25.9686 21.1214 27.0594 21.5182 27.965 22.3079C28.8707 23.0976 29.322 24.055 29.3191 25.1801C29.3162 26.3051 28.8641 27.2625 27.9628 28.0523C27.0616 28.842 25.9715 29.2381 24.6925 29.2407ZM4.4144 35.0004C3.40815 35.0004 2.56815 34.7048 1.8944 34.1134C1.22065 33.5221 0.88305 32.7842 0.881592 31.8998V7.38249C0.881592 6.49933 1.2192 5.76208 1.8944 5.17075C2.56961 4.57942 3.41034 4.28311 4.41659 4.28183H8.28628V0.000427246H10.6422V4.28183H26.2916V0.000427246H28.4791V4.28183H32.3488C33.355 4.28183 34.1958 4.57814 34.871 5.17075C35.5462 5.76336 35.883 6.50125 35.8816 7.38441V31.8998C35.8816 32.7829 35.5447 33.5208 34.871 34.1134C34.1972 34.706 33.3558 35.0017 32.3466 35.0004H4.4144ZM4.4144 33.0805H32.3488C32.6842 33.0805 32.9926 32.9576 33.2741 32.7119C33.5555 32.4661 33.6955 32.1948 33.6941 31.8978V15.0641H3.06909V31.8998C3.06909 32.1942 3.20909 32.4649 3.48909 32.7119C3.76909 32.9589 4.07753 33.0818 4.4144 33.0805ZM3.06909 13.1422H33.6941V7.38249C33.6941 7.0881 33.5541 6.8174 33.2741 6.57037C32.9941 6.32334 32.6849 6.20046 32.3466 6.20174H4.41659C4.07972 6.20174 3.77055 6.32462 3.48909 6.57037C3.20763 6.81611 3.06763 7.08746 3.06909 7.38441V13.1422Z" fill="#525252"/>
</svg>
