<svg width="35" height="35" viewBox="0 0 35 35" fill="none" xmlns="http://www.w3.org/2000/svg">
<g id="icon home">
<path id="Vector" d="M15.4962 0.735703C16.6206 -0.244665 18.3794 -0.244665 19.5038 0.735703L33.6306 13.0534C34.5048 13.8156 35 14.8759 35 15.9853V30.9657C35 33.1939 33.0412 35.0004 30.625 35.0004H24.7917C22.3754 35.0004 20.4167 33.1939 20.4167 30.9657V24.241C20.4167 23.4984 19.7637 22.8962 18.9583 22.8962H16.0417C15.2363 22.8962 14.5833 23.4984 14.5833 24.241V30.9657C14.5833 33.1939 12.6246 35.0004 10.2083 35.0004H4.375C1.95875 35.0004 0 33.1939 0 30.9657V15.9853C0 14.8759 0.49525 13.8156 1.36932 13.0534L15.4962 0.735703ZM17.5 2.69028L3.3731 15.008C3.08175 15.262 2.91667 15.6155 2.91667 15.9853V30.9657C2.91667 31.7083 3.56959 32.3106 4.375 32.3106H10.2083C11.0137 32.3106 11.6667 31.7083 11.6667 30.9657V24.241C11.6667 22.0128 13.6254 20.2064 16.0417 20.2064H18.9583C21.3746 20.2064 23.3333 22.0128 23.3333 24.241V30.9657C23.3333 31.7083 23.9864 32.3106 24.7917 32.3106H30.625C31.4303 32.3106 32.0833 31.7083 32.0833 30.9657V15.9853C32.0833 15.6155 31.9183 15.262 31.6269 15.008L17.5 2.69028Z" fill="#525252"/>
</g>
</svg>
