<svg width="39" height="39" viewBox="0 0 39 39" fill="none" xmlns="http://www.w3.org/2000/svg">
<g id="icon profile">
<path id="Vector" d="M1.88161 32.6258C1.88161 30.3052 2.80348 28.0796 4.44442 26.4387C6.08537 24.7977 8.31096 23.8759 10.6316 23.8759H28.1316C30.4523 23.8759 32.6778 24.7977 34.3188 26.4387C35.9597 28.0796 36.8816 30.3052 36.8816 32.6258C36.8816 33.7862 36.4207 34.899 35.6002 35.7194C34.7797 36.5399 33.6669 37.0008 32.5066 37.0008H6.25661C5.09628 37.0008 3.98349 36.5399 3.16301 35.7194C2.34254 34.899 1.88161 33.7862 1.88161 32.6258Z" stroke="#525252" stroke-width="2.5" stroke-linejoin="round"/>
<path id="Vector_2" d="M19.3836 15.125C23.0079 15.125 25.9461 12.1869 25.9461 8.5625C25.9461 4.93813 23.0079 2 19.3836 2C15.7592 2 12.8211 4.93813 12.8211 8.5625C12.8211 12.1869 15.7592 15.125 19.3836 15.125Z" stroke="#525252" stroke-width="2.5"/>
</g>
</svg>
