<svg width="35" height="36" viewBox="0 0 35 36" fill="none" xmlns="http://www.w3.org/2000/svg">
<path d="M23.8109 29.3496C22.532 29.3496 21.4411 28.9529 20.5384 28.1593C19.6357 27.3657 19.1836 26.409 19.1822 25.289C19.1807 24.1691 19.6328 23.211 20.5384 22.4149C21.4441 21.6188 22.5349 21.2226 23.8109 21.2265C25.087 21.2303 26.1778 21.6271 27.0834 22.4168C27.9891 23.2066 28.4404 24.164 28.4375 25.289C28.4346 26.4141 27.9825 27.3715 27.0812 28.1612C26.18 28.9509 25.0899 29.3471 23.8109 29.3496ZM3.53281 35.1094C2.52656 35.1094 1.68656 34.8137 1.01281 34.2224C0.339062 33.631 0.00145833 32.8932 0 32.0087V7.49144C0 6.60828 0.337604 5.87103 1.01281 5.2797C1.68802 4.68836 2.52875 4.39206 3.535 4.39078H7.40469V0.109375H9.76062V4.39078H25.41V0.109375H27.5975V4.39078H31.4672C32.4734 4.39078 33.3142 4.68709 33.9894 5.2797C34.6646 5.87231 35.0015 6.6102 35 7.49336V32.0087C35 32.8919 34.6631 33.6298 33.9894 34.2224C33.3156 34.815 32.4742 35.1107 31.465 35.1094H3.53281ZM3.53281 33.1895H31.4672C31.8026 33.1895 32.111 33.0666 32.3925 32.8208C32.674 32.5751 32.814 32.3037 32.8125 32.0068V15.173H2.1875V32.0087C2.1875 32.3031 2.3275 32.5738 2.6075 32.8208C2.8875 33.0679 3.19594 33.1907 3.53281 33.1895ZM2.1875 13.2512H32.8125V7.49144C32.8125 7.19705 32.6725 6.92634 32.3925 6.67931C32.1125 6.43229 31.8033 6.30941 31.465 6.31069H3.535C3.19813 6.31069 2.88896 6.43357 2.6075 6.67931C2.32604 6.92506 2.18604 7.19641 2.1875 7.49336V13.2512Z" fill="#FEB930"/>
</svg>
