<svg width="25" height="36" viewBox="0 0 25 36" fill="none" xmlns="http://www.w3.org/2000/svg">
<g id="Group 35">
<path id="Vector" d="M12.5 35.2188L11.7308 34.3557C11.25 33.8763 0 20.6434 0 12.6845C0 5.78039 5.57692 0.21875 12.5 0.21875C19.4231 0.21875 25 5.78039 25 12.6845C25 20.6434 13.75 33.8763 13.2692 34.4516L12.5 35.2188ZM12.5 2.13656C6.63462 2.13656 1.92308 6.83519 1.92308 12.6845C1.92308 18.8215 10 29.1777 12.5 32.2461C15 29.1777 23.0769 18.8215 23.0769 12.6845C23.0769 6.83519 18.3654 2.13656 12.5 2.13656Z" fill="#FEB930"/>
<path id="Vector_2" d="M12.4996 17.4791C9.80728 17.4791 7.69189 15.3695 7.69189 12.6845C7.69189 9.9996 9.80728 7.89001 12.4996 7.89001C15.1919 7.89001 17.3073 9.9996 17.3073 12.6845C17.3073 15.3695 15.1919 17.4791 12.4996 17.4791ZM12.4996 9.80782C10.865 9.80782 9.61497 11.0544 9.61497 12.6845C9.61497 14.3147 10.865 15.5612 12.4996 15.5612C14.1342 15.5612 15.3842 14.3147 15.3842 12.6845C15.3842 11.0544 14.1342 9.80782 12.4996 9.80782Z" fill="#FEB930"/>
</g>
</svg>
