<svg width="49" height="46" viewBox="0 0 49 46" fill="none" xmlns="http://www.w3.org/2000/svg">
<g id="Group 34">
<path id="Vector" opacity="0.9" d="M24.3266 27.0995C31.8099 27.0995 37.8764 21.0331 37.8764 13.5498C37.8764 6.06643 31.8099 0 24.3266 0C16.8433 0 10.7769 6.06643 10.7769 13.5498C10.7769 21.0331 16.8433 27.0995 24.3266 27.0995Z" fill="#FEB930"/>
<g id="Vector_2" style="mix-blend-mode:hard-light" opacity="0.9">
<path d="M35.2294 45.9431C42.7128 45.9431 48.7792 39.8767 48.7792 32.3934C48.7792 24.9101 42.7128 18.8436 35.2294 18.8436C27.7461 18.8436 21.6797 24.9101 21.6797 32.3934C21.6797 39.8767 27.7461 45.9431 35.2294 45.9431Z" fill="#FEB930"/>
</g>
<path id="Vector_3" opacity="0.9" d="M13.5498 45.9431C21.0331 45.9431 27.0995 39.8767 27.0995 32.3934C27.0995 24.9101 21.0331 18.8436 13.5498 18.8436C6.06643 18.8436 0 24.9101 0 32.3934C0 39.8767 6.06643 45.9431 13.5498 45.9431Z" fill="#FEB930"/>
</g>
</svg>
