<svg width="230" height="61" viewBox="0 0 230 61" fill="none" xmlns="http://www.w3.org/2000/svg">
<path opacity="0.9" d="M27.9384 36.1278C36.2502 36.1278 42.9882 29.3898 42.9882 21.0781C42.9882 12.7663 36.2502 6.02832 27.9384 6.02832C19.6267 6.02832 12.8887 12.7663 12.8887 21.0781C12.8887 29.3898 19.6267 36.1278 27.9384 36.1278Z" fill="#FEB930" stroke="white" stroke-width="3"/>
<path opacity="0.9" d="M38.8408 54.9716C47.1525 54.9716 53.8905 48.2336 53.8905 39.9218C53.8905 31.6101 47.1525 24.8721 38.8408 24.8721C30.529 24.8721 23.791 31.6101 23.791 39.9218C23.791 48.2336 30.529 54.9716 38.8408 54.9716Z" fill="#FFFF00" fill-opacity="0.5" stroke="white" stroke-width="3"/>
<path opacity="0.9" d="M17.1611 54.9716C25.4728 54.9716 32.2108 48.2336 32.2108 39.9218C32.2108 31.6101 25.4728 24.8721 17.1611 24.8721C8.84933 24.8721 2.11133 31.6101 2.11133 39.9218C2.11133 48.2336 8.84933 54.9716 17.1611 54.9716Z" fill="#FEB930" stroke="white" stroke-width="3"/>
<path d="M72.1954 14.9C72.9634 14.9 73.6354 15.188 74.2114 15.764C74.8194 16.308 75.1234 16.996 75.1234 17.828V45.572C75.1234 46.404 74.8194 47.108 74.2114 47.684C73.6034 48.228 72.8994 48.5 72.0994 48.5C71.2034 48.5 70.4834 48.228 69.9394 47.684C69.3954 47.108 69.1234 46.404 69.1234 45.572V17.828C69.1234 16.996 69.4114 16.308 69.9874 15.764C70.5634 15.188 71.2994 14.9 72.1954 14.9ZM93.4594 14.9C94.3554 14.9 95.0754 15.188 95.6194 15.764C96.1634 16.308 96.4354 16.996 96.4354 17.828V45.572C96.4354 46.404 96.1474 47.108 95.5714 47.684C95.0274 48.228 94.2914 48.5 93.3634 48.5C92.5954 48.5 91.9074 48.228 91.2994 47.684C90.7234 47.108 90.4354 46.404 90.4354 45.572V17.828C90.4354 16.996 90.7394 16.308 91.3474 15.764C91.9554 15.188 92.6594 14.9 93.4594 14.9ZM72.0514 28.868H93.4594V34.388H72.0514V28.868ZM122.199 22.82C123.031 22.82 123.719 23.108 124.263 23.684C124.807 24.228 125.079 24.916 125.079 25.748V37.94C125.079 41.332 124.135 44.02 122.247 46.004C120.359 47.988 117.639 48.98 114.087 48.98C110.535 48.98 107.815 47.988 105.927 46.004C104.071 44.02 103.143 41.332 103.143 37.94V25.748C103.143 24.916 103.415 24.228 103.959 23.684C104.503 23.108 105.191 22.82 106.023 22.82C106.855 22.82 107.543 23.108 108.087 23.684C108.631 24.228 108.903 24.916 108.903 25.748V37.94C108.903 39.892 109.335 41.348 110.199 42.308C111.063 43.236 112.359 43.7 114.087 43.7C115.847 43.7 117.159 43.236 118.023 42.308C118.887 41.348 119.319 39.892 119.319 37.94V25.748C119.319 24.916 119.591 24.228 120.135 23.684C120.679 23.108 121.367 22.82 122.199 22.82ZM152.339 12.98C153.171 12.98 153.859 13.252 154.403 13.796C154.947 14.34 155.219 15.044 155.219 15.908V45.572C155.219 46.404 154.947 47.108 154.403 47.684C153.859 48.228 153.171 48.5 152.339 48.5C151.507 48.5 150.819 48.228 150.275 47.684C149.731 47.108 149.459 46.404 149.459 45.572V43.22L150.515 43.652C150.515 44.068 150.291 44.58 149.843 45.188C149.395 45.764 148.787 46.34 148.019 46.916C147.251 47.492 146.339 47.988 145.283 48.404C144.259 48.788 143.139 48.98 141.923 48.98C139.715 48.98 137.715 48.42 135.923 47.3C134.131 46.148 132.707 44.58 131.651 42.596C130.627 40.58 130.115 38.276 130.115 35.684C130.115 33.06 130.627 30.756 131.651 28.772C132.707 26.756 134.115 25.188 135.875 24.068C137.635 22.916 139.587 22.34 141.731 22.34C143.107 22.34 144.371 22.548 145.523 22.964C146.675 23.38 147.667 23.908 148.499 24.548C149.363 25.188 150.019 25.844 150.467 26.516C150.947 27.156 151.187 27.7 151.187 28.148L149.459 28.772V15.908C149.459 15.076 149.731 14.388 150.275 13.844C150.819 13.268 151.507 12.98 152.339 12.98ZM142.643 43.7C144.051 43.7 145.283 43.348 146.339 42.644C147.395 41.94 148.211 40.98 148.787 39.764C149.395 38.548 149.699 37.188 149.699 35.684C149.699 34.148 149.395 32.772 148.787 31.556C148.211 30.34 147.395 29.38 146.339 28.676C145.283 27.972 144.051 27.62 142.643 27.62C141.267 27.62 140.051 27.972 138.995 28.676C137.939 29.38 137.107 30.34 136.499 31.556C135.923 32.772 135.635 34.148 135.635 35.684C135.635 37.188 135.923 38.548 136.499 39.764C137.107 40.98 137.939 41.94 138.995 42.644C140.051 43.348 141.267 43.7 142.643 43.7ZM182.48 12.98C183.312 12.98 184 13.252 184.544 13.796C185.088 14.34 185.36 15.044 185.36 15.908V45.572C185.36 46.404 185.088 47.108 184.544 47.684C184 48.228 183.312 48.5 182.48 48.5C181.648 48.5 180.96 48.228 180.416 47.684C179.872 47.108 179.6 46.404 179.6 45.572V43.22L180.656 43.652C180.656 44.068 180.432 44.58 179.984 45.188C179.536 45.764 178.928 46.34 178.16 46.916C177.392 47.492 176.48 47.988 175.424 48.404C174.4 48.788 173.28 48.98 172.064 48.98C169.856 48.98 167.856 48.42 166.064 47.3C164.272 46.148 162.848 44.58 161.792 42.596C160.768 40.58 160.256 38.276 160.256 35.684C160.256 33.06 160.768 30.756 161.792 28.772C162.848 26.756 164.256 25.188 166.016 24.068C167.776 22.916 169.728 22.34 171.872 22.34C173.248 22.34 174.512 22.548 175.664 22.964C176.816 23.38 177.808 23.908 178.64 24.548C179.504 25.188 180.16 25.844 180.608 26.516C181.088 27.156 181.328 27.7 181.328 28.148L179.6 28.772V15.908C179.6 15.076 179.872 14.388 180.416 13.844C180.96 13.268 181.648 12.98 182.48 12.98ZM172.784 43.7C174.192 43.7 175.424 43.348 176.48 42.644C177.536 41.94 178.352 40.98 178.928 39.764C179.536 38.548 179.84 37.188 179.84 35.684C179.84 34.148 179.536 32.772 178.928 31.556C178.352 30.34 177.536 29.38 176.48 28.676C175.424 27.972 174.192 27.62 172.784 27.62C171.408 27.62 170.192 27.972 169.136 28.676C168.08 29.38 167.248 30.34 166.64 31.556C166.064 32.772 165.776 34.148 165.776 35.684C165.776 37.188 166.064 38.548 166.64 39.764C167.248 40.98 168.08 41.94 169.136 42.644C170.192 43.348 171.408 43.7 172.784 43.7ZM197.837 45.572C197.837 46.404 197.549 47.108 196.973 47.684C196.429 48.228 195.741 48.5 194.909 48.5C194.109 48.5 193.437 48.228 192.893 47.684C192.349 47.108 192.077 46.404 192.077 45.572V15.908C192.077 15.076 192.349 14.388 192.893 13.844C193.469 13.268 194.173 12.98 195.005 12.98C195.837 12.98 196.509 13.268 197.021 13.844C197.565 14.388 197.837 15.076 197.837 15.908V45.572ZM216.161 48.98C213.441 48.98 211.073 48.42 209.057 47.3C207.073 46.148 205.537 44.596 204.449 42.644C203.393 40.692 202.865 38.484 202.865 36.02C202.865 33.14 203.441 30.692 204.593 28.676C205.777 26.628 207.313 25.06 209.201 23.972C211.089 22.884 213.089 22.34 215.201 22.34C216.833 22.34 218.369 22.676 219.809 23.348C221.281 24.02 222.577 24.948 223.697 26.132C224.817 27.284 225.697 28.628 226.337 30.164C227.009 31.7 227.345 33.332 227.345 35.06C227.313 35.828 227.009 36.452 226.433 36.932C225.857 37.412 225.185 37.652 224.417 37.652H206.081L204.641 32.852H222.257L221.201 33.812V32.516C221.137 31.588 220.801 30.756 220.193 30.02C219.617 29.284 218.881 28.708 217.985 28.292C217.121 27.844 216.193 27.62 215.201 27.62C214.241 27.62 213.345 27.748 212.513 28.004C211.681 28.26 210.961 28.692 210.353 29.3C209.745 29.908 209.265 30.724 208.913 31.748C208.561 32.772 208.385 34.068 208.385 35.636C208.385 37.364 208.737 38.836 209.441 40.052C210.177 41.236 211.105 42.148 212.225 42.788C213.377 43.396 214.593 43.7 215.873 43.7C217.057 43.7 218.001 43.604 218.705 43.412C219.409 43.22 219.969 42.996 220.385 42.74C220.833 42.452 221.233 42.212 221.585 42.02C222.161 41.732 222.705 41.588 223.217 41.588C223.921 41.588 224.497 41.828 224.945 42.308C225.425 42.788 225.665 43.348 225.665 43.988C225.665 44.852 225.217 45.636 224.321 46.34C223.489 47.044 222.321 47.668 220.817 48.212C219.313 48.724 217.761 48.98 216.161 48.98Z" fill="white"/>
</svg>
