<svg width="50" height="46" viewBox="0 0 50 46" fill="none" xmlns="http://www.w3.org/2000/svg">
<path opacity="0.9" d="M24.9384 27.1278C32.4218 27.1278 38.4882 21.0614 38.4882 13.5781C38.4882 6.09475 32.4218 0.0283203 24.9384 0.0283203C17.4551 0.0283203 11.3887 6.09475 11.3887 13.5781C11.3887 21.0614 17.4551 27.1278 24.9384 27.1278Z" fill="#FEB930"/>
<path opacity="0.9" d="M35.8408 45.9716C43.3241 45.9716 49.3905 39.9052 49.3905 32.4218C49.3905 24.9385 43.3241 18.8721 35.8408 18.8721C28.3574 18.8721 22.291 24.9385 22.291 32.4218C22.291 39.9052 28.3574 45.9716 35.8408 45.9716Z" fill="#FFFF00" fill-opacity="0.5"/>
<path opacity="0.9" d="M14.1611 45.9716C21.6444 45.9716 27.7108 39.9052 27.7108 32.4218C27.7108 24.9385 21.6444 18.8721 14.1611 18.8721C6.67776 18.8721 0.611328 24.9385 0.611328 32.4218C0.611328 39.9052 6.67776 45.9716 14.1611 45.9716Z" fill="#FEB930"/>
</svg>
