<svg width="35" height="36" viewBox="0 0 35 36" fill="none" xmlns="http://www.w3.org/2000/svg">
<g id="mingcute:star-fill">
<g id="Group">
<path id="Vector" d="M15.925 4.40131C16.0855 4.12592 16.3154 3.89742 16.5917 3.7386C16.8681 3.57979 17.1813 3.49622 17.5 3.49622C17.8187 3.49622 18.1319 3.57979 18.4083 3.7386C18.6846 3.89742 18.9145 4.12592 19.075 4.40131L23.1511 11.3984L31.0669 13.1134C31.3783 13.1811 31.6665 13.3292 31.9027 13.5429C32.139 13.7567 32.3152 14.0287 32.4136 14.3317C32.512 14.6348 32.5293 14.9583 32.4636 15.2702C32.398 15.582 32.2518 15.8711 32.0396 16.1088L26.6438 22.1478L27.4604 30.2051C27.4926 30.5223 27.4411 30.8425 27.3108 31.1336C27.1806 31.4247 26.9763 31.6765 26.7183 31.864C26.4603 32.0514 26.1577 32.1679 25.8406 32.2018C25.5235 32.2357 25.203 32.1858 24.9113 32.0571L17.5 28.7905L10.0888 32.0571C9.79697 32.1858 9.47654 32.2357 9.15944 32.2018C8.84235 32.1679 8.53969 32.0514 8.2817 31.864C8.0237 31.6765 7.81939 31.4247 7.68917 31.1336C7.55895 30.8425 7.50737 30.5223 7.53959 30.2051L8.35626 22.1478L2.96043 16.1103C2.74784 15.8726 2.60132 15.5833 2.53549 15.2713C2.46966 14.9593 2.48682 14.6355 2.58526 14.3322C2.6837 14.0289 2.85998 13.7567 3.0965 13.5429C3.33301 13.329 3.62149 13.1809 3.93313 13.1134L11.849 11.3984L15.925 4.40131Z" fill="#FEB930"/>
</g>
</g>
</svg>
