<svg width="35" height="36" viewBox="0 0 35 36" fill="none" xmlns="http://www.w3.org/2000/svg">
<path id="Vector" fill-rule="evenodd" clip-rule="evenodd" d="M18.55 16.849L25.3592 23.6583L23.8752 25.144L16.45 17.7188V7.21875H18.55V16.849ZM17.5 35.2188C7.83475 35.2188 0 27.384 0 17.7188C0 8.0535 7.83475 0.21875 17.5 0.21875C27.1652 0.21875 35 8.0535 35 17.7188C35 27.384 27.1652 35.2188 17.5 35.2188ZM17.5 33.1187C21.5843 33.1187 25.5014 31.4963 28.3894 28.6082C31.2775 25.7201 32.9 21.8031 32.9 17.7188C32.9 13.6344 31.2775 9.71737 28.3894 6.82931C25.5014 3.94124 21.5843 2.31875 17.5 2.31875C13.4157 2.31875 9.49862 3.94124 6.61056 6.82931C3.72249 9.71737 2.1 13.6344 2.1 17.7188C2.1 21.8031 3.72249 25.7201 6.61056 28.6082C9.49862 31.4963 13.4157 33.1187 17.5 33.1187Z" fill="#FEB930"/>
</svg>
