<svg width="39" height="39" viewBox="0 0 39 39" fill="none" xmlns="http://www.w3.org/2000/svg">
<path d="M2 32.626C2 30.3053 2.92187 28.0797 4.56282 26.4388C6.20376 24.7978 8.42936 23.876 10.75 23.876H28.25C30.5706 23.876 32.7962 24.7978 34.4372 26.4388C36.0781 28.0797 37 30.3053 37 32.626C37 33.7863 36.5391 34.8991 35.7186 35.7196C34.8981 36.54 33.7853 37.001 32.625 37.001H6.375C5.21468 37.001 4.10188 36.54 3.28141 35.7196C2.46094 34.8991 2 33.7863 2 32.626Z" stroke="#F1F1F1" stroke-width="2.5" stroke-linejoin="round"/>
<path d="M19.502 15.125C23.1263 15.125 26.0645 12.1869 26.0645 8.5625C26.0645 4.93813 23.1263 2 19.502 2C15.8776 2 12.9395 4.93813 12.9395 8.5625C12.9395 12.1869 15.8776 15.125 19.502 15.125Z" stroke="#F1F1F1" stroke-width="2.5"/>
</svg>
